HIERARCHY
ROOT joint_Root
{
	OFFSET 0.0 0.0 0.0
	CHANNELS 6 Xposition Yposition Zposition Zrotation Xrotation Yrotation 
	JOINT Hips
	{
		OFFSET -0.726466 93.3139 -2.00062
		CHANNELS 6 Xposition Yposition Zposition Zrotation Xrotation Yrotation 
		JOINT Spine
		{
			OFFSET 15.7357 0.0 0.0
			CHANNELS 6 Xposition Yposition Zposition Zrotation Xrotation Yrotation 
			JOINT Chest
			{
				OFFSET 8.98455 -0.406207 0.0
				CHANNELS 6 Xposition Yposition Zposition Zrotation Xrotation Yrotation 
				JOINT Neck
				{
					OFFSET 16.3773 0.0 0.0
					CHANNELS 6 Xposition Yposition Zposition Zrotation Xrotation Yrotation 
					JOINT Head
					{
						OFFSET 6.45672 0.0 0.0
						CHANNELS 6 Xposition Yposition Zposition Zrotation Xrotation Yrotation 
						End Site
						{
							OFFSET 0.0 0.0 0.0
						}
					}
				}
				JOINT Shoulder_L
				{
					OFFSET 12.9942 -0.242716 4.98039
					CHANNELS 6 Xposition Yposition Zposition Zrotation Xrotation Yrotation 
					JOINT UpperArm_L
					{
						OFFSET 5.34809 0.0 0.0
						CHANNELS 6 Xposition Yposition Zposition Zrotation Xrotation Yrotation 
						JOINT LowerArm_L
						{
							OFFSET 24.3286 1.87007e-05 0.0
							CHANNELS 6 Xposition Yposition Zposition Zrotation Xrotation Yrotation 
							JOINT Hand_L
							{
								OFFSET 22.2916 0.0 0.0
								CHANNELS 6 Xposition Yposition Zposition Zrotation Xrotation Yrotation 
								End Site
								{
									OFFSET 0.0 0.0 0.0
								}
							}
						}
					}
				}
				JOINT Shoulder_R
				{
					OFFSET 12.9945 -0.242716 -4.98039
					CHANNELS 6 Xposition Yposition Zposition Zrotation Xrotation Yrotation 
					JOINT UpperArm_R
					{
						OFFSET -5.34813 0.0 0.0
						CHANNELS 6 Xposition Yposition Zposition Zrotation Xrotation Yrotation 
						JOINT LowerArm_R
						{
							OFFSET -24.3289 0.000322201 0.0
							CHANNELS 6 Xposition Yposition Zposition Zrotation Xrotation Yrotation 
							JOINT Hand_R
							{
								OFFSET -22.2915 -0.000108084 0.0
								CHANNELS 6 Xposition Yposition Zposition Zrotation Xrotation Yrotation 
								End Site
								{
									OFFSET 0.0 0.0 0.0
								}
							}
						}
					}
				}
			}
		}
		JOINT UpperLeg_L
		{
			OFFSET -2.19248 -6.46944 0.0
			CHANNELS 6 Xposition Yposition Zposition Zrotation Xrotation Yrotation 
			JOINT LowerLeg_L
			{
				OFFSET 39.0811 0.0 -1.23785e-05
				CHANNELS 6 Xposition Yposition Zposition Zrotation Xrotation Yrotation 
				JOINT Foot_L
				{
					OFFSET 40.9854 0.0 -1.26872e-05
					CHANNELS 6 Xposition Yposition Zposition Zrotation Xrotation Yrotation 
					JOINT Toes_L
					{
						OFFSET 11.7543 0.0 0.0
						CHANNELS 6 Xposition Yposition Zposition Zrotation Xrotation Yrotation 
						End Site
						{
							OFFSET 0.0 0.0 0.0
						}
					}
				}
			}
		}
		JOINT UpperLeg_R
		{
			OFFSET -2.19251 6.46944 0.0
			CHANNELS 6 Xposition Yposition Zposition Zrotation Xrotation Yrotation 
			JOINT LowerLeg_R
			{
				OFFSET -39.0811 -0.00228153 -0.0401928
				CHANNELS 6 Xposition Yposition Zposition Zrotation Xrotation Yrotation 
				JOINT Foot_R
				{
					OFFSET -40.9854 0.0 0.0
					CHANNELS 6 Xposition Yposition Zposition Zrotation Xrotation Yrotation 
					JOINT Toes_R
					{
						OFFSET -11.7543 0.0 0.0
						CHANNELS 6 Xposition Yposition Zposition Zrotation Xrotation Yrotation 
						End Site
						{
							OFFSET 0.0 0.0 0.0
						}
					}
				}
			}
		}
	}
}
MOTION
Frames:	4
Frame Time:	0.0333333
0.000000 0.000000 0.000000 0.000000 0.000000 -0.000000 -1.319050 92.208800 -2.310850 87.675200 -0.677699 2.292860 15.735700 0.000005 -0.000001 86.641500 85.569000 -85.999500 8.984550 -0.406207 -0.000000 1.084210 -0.556367 1.288300 16.377300 -0.000001 -0.000001 -0.868741 -3.461550 1.303510 6.456720 -0.000001 -0.000000 -0.161300 -2.525610 -2.968230 12.994200 -0.242716 4.980390 -89.924900 -0.249971 -73.276100 5.348090 -0.000007 -0.000001 -64.471000 41.506000 -18.024400 24.328600 0.000019 0.000005 2.411570 5.982250 -22.002800 22.291600 -0.000001 0.000005 5.790160 5.509260 -6.910930 12.994500 -0.242716 -4.980390 88.082200 5.902250 -71.963200 -5.348130 -0.000001 -0.000004 -63.301500 42.537800 -17.774000 -24.328900 0.000322 -0.000009 4.279000 11.285100 -20.928700 -22.291500 -0.000108 -0.000004 8.650590 5.475030 -5.559470 -2.192480 -6.469440 -0.000000 -169.286000 -15.033300 -3.660020 39.081100 -0.000007 -0.000012 -0.168157 0.444811 20.708900 40.985400 -0.000006 -0.000013 -5.820840 3.966170 -63.051800 11.754300 -0.000000 0.000003 -0.000029 -0.000346 -16.591100 -2.192510 6.469440 -0.000001 175.513000 20.423800 178.013000 -39.081100 -0.002282 -0.040193 -0.030550 0.098716 18.939200 -40.985400 0.000008 0.000006 -2.405430 2.466070 -62.917400 -11.754300 -0.000006 -0.000006 -0.006385 -0.074296 -19.597200
0.000000 0.000000 0.000000 0.000000 0.000000 -0.000000 -1.309710 92.210000 -2.334150 87.700400 -0.620254 2.342320 15.735700 0.000005 -0.000001 86.562000 85.556100 -85.937300 8.984550 -0.406207 -0.000000 1.109300 -0.569041 1.253970 16.377300 -0.000001 -0.000001 -0.933909 -3.483320 1.351890 6.456720 -0.000001 -0.000000 -0.120309 -2.535930 -2.928430 12.994200 -0.242716 4.980390 -89.920400 -0.264293 -73.233200 5.348090 -0.000007 -0.000001 -63.402600 41.535500 -19.163600 24.328600 0.000019 0.000005 2.805610 6.819640 -22.425400 22.291600 -0.000001 0.000005 5.669720 5.512430 -7.042280 12.994500 -0.242716 -4.980390 88.101100 5.848650 -71.977800 -5.348130 -0.000001 -0.000004 -62.184100 43.358700 -18.677300 -24.328900 0.000322 -0.000009 4.468920 11.214000 -21.899000 -22.291500 -0.000108 -0.000004 8.399240 5.472600 -5.467260 -2.192480 -6.469440 -0.000000 -169.331000 -14.939000 -3.655700 39.081100 -0.000007 -0.000012 -0.167428 0.442644 20.719100 40.985400 -0.000006 -0.000013 -5.810760 3.906640 -63.036800 11.754300 -0.000000 0.000003 -0.000033 -0.000397 -16.593000 -2.192510 6.469440 -0.000001 175.462000 20.521800 178.044000 -39.081100 -0.002282 -0.040193 -0.029395 0.095187 18.969100 -40.985400 0.000008 0.000006 -2.374180 2.508620 -62.919100 -11.754300 -0.000006 -0.000006 -0.006550 -0.075754 -19.656600
0.000000 0.000000 0.000000 0.000000 0.000000 -0.000000 -1.315900 92.211800 -2.370910 87.692400 -0.627022 2.420300 15.735700 0.000005 -0.000001 86.731800 85.536300 -86.106100 8.984550 -0.406207 -0.000000 1.150220 -0.544845 1.255840 16.377300 -0.000001 -0.000001 -0.969069 -3.487380 1.336000 6.456720 -0.000001 -0.000000 -0.102939 -2.553350 -2.866480 12.994200 -0.242716 4.980390 -89.929500 -0.234849 -73.277900 5.348090 -0.000007 -0.000001 -61.654600 41.378200 -20.888800 24.328600 0.000019 0.000005 3.151180 7.344220 -23.299800 22.291600 -0.000001 0.000005 5.421350 5.518360 -7.293080 12.994500 -0.242716 -4.980390 88.139000 5.739500 -72.001200 -5.348130 -0.000001 -0.000004 -60.593000 44.148600 -20.096300 -24.328900 0.000322 -0.000009 4.748880 11.131500 -23.286400 -22.291500 -0.000108 -0.000004 8.260930 5.471610 -5.430470 -2.192480 -6.469440 -0.000000 -169.306000 -14.870200 -3.600650 39.081100 -0.000007 -0.000012 -0.167255 0.442209 20.718100 40.985400 -0.000006 -0.000013 -5.821000 3.866890 -63.018300 11.754300 -0.000000 0.000003 -0.000036 -0.000430 -16.594300 -2.192510 6.469440 -0.000001 175.465000 20.525300 178.080000 -39.081100 -0.002282 -0.040193 -0.027910 0.090666 19.008000 -40.985400 0.000008 0.000006 -2.263160 2.491500 -62.923900 -11.754300 -0.000006 -0.000006 -0.006575 -0.075969 -19.665400
0.000000 0.000000 0.000000 0.000000 0.000000 -0.000000 -1.310300 92.210900 -2.452130 87.728200 -0.576471 2.498350 15.735700 0.000005 -0.000001 86.695900 85.510300 -86.086400 8.984550 -0.406207 -0.000000 1.201640 -0.552194 1.223700 16.377300 -0.000001 -0.000001 -1.025170 -3.499700 1.309320 6.456720 -0.000001 -0.000000 -0.077682 -2.531320 -2.820080 12.994200 -0.242716 4.980390 -89.958400 -0.139468 -73.403700 5.348090 -0.000007 -0.000001 -59.119500 40.593400 -23.146600 24.328600 0.000019 0.000005 3.720190 7.957160 -25.156600 22.291600 -0.000001 0.000005 5.125350 5.525880 -7.614680 12.994500 -0.242716 -4.980390 88.169600 5.651980 -72.022300 -5.348130 -0.000001 -0.000004 -58.463200 44.440500 -22.141300 -24.328900 0.000322 -0.000009 5.290630 11.351000 -25.200500 -22.291500 -0.000108 -0.000004 8.371410 5.470510 -5.389590 -2.192480 -6.469440 -0.000000 -169.355000 -14.780600 -3.618810 39.081100 -0.000007 -0.000012 -0.166860 0.440292 20.755700 40.985400 -0.000006 -0.000013 -5.814000 3.791910 -62.977600 11.754300 -0.000000 0.000003 -0.000029 -0.000348 -16.591200 -2.192510 6.469440 -0.000001 175.387000 20.583000 178.107000 -39.081100 -0.002282 -0.040193 -0.030516 0.098127 19.026500 -40.985400 0.000008 0.000006 -2.449080 2.556630 -62.868700 -11.754300 -0.000006 -0.000006 -0.006247 -0.073061 -19.546700
